HIERARCHY
ROOT hip
{
  OFFSET 0 0 0
  CHANNELS 6 Xposition Yposition Zposition Zrotation Yrotation Xrotation
  JOINT abdomen
  {
    OFFSET 0 20.6881 -0.73152
    CHANNELS 3 Zrotation Xrotation Yrotation
    JOINT chest
    {
      OFFSET 0 11.7043 -0.48768
      CHANNELS 3 Zrotation Xrotation Yrotation
      JOINT neck
      {
        OFFSET 0 22.1894 -2.19456
        CHANNELS 3 Zrotation Xrotation Yrotation
        JOINT head
        {
          OFFSET -0.24384 7.07133 1.2192
          CHANNELS 3 Zrotation Xrotation Yrotation
          JOINT leftEye
          {
            OFFSET 4.14528 8.04674 8.04672
            CHANNELS 3 Zrotation Xrotation Yrotation
            End Site
            {
              OFFSET 1 0 0
            }
          }
          JOINT rightEye
          {
            OFFSET -3.6576 8.04674 8.04672
            CHANNELS 3 Zrotation Xrotation Yrotation
            End Site
            {
              OFFSET 1 0 0
            }
          }
        }
      }
      JOINT rCollar
      {
        OFFSET -2.68224 19.2634 -4.8768
        CHANNELS 3 Zrotation Xrotation Yrotation
        JOINT rShldr
        {
          OFFSET -8.77824 -1.95073 1.46304
          CHANNELS 3 Zrotation Xrotation Yrotation
          JOINT rForeArm
          {
            OFFSET -28.1742 -1.7115 0.48768
            CHANNELS 3 Zrotation Xrotation Yrotation
            JOINT rHand
            {
              OFFSET -22.5879 0.773209 7.07136
              CHANNELS 3 Zrotation Xrotation Yrotation
              JOINT rThumb1
              {
                OFFSET -1.2192 -0.487915 3.41376
                CHANNELS 3 Zrotation Xrotation Yrotation
                JOINT rThumb2
                {
                  OFFSET -3.37035 -0.52449 3.41376
                  CHANNELS 3 Zrotation Xrotation Yrotation
                  End Site
                  {
                    OFFSET -1.78271 -1.18214 1.43049
                  }
                }
              }
              JOINT rIndex1
              {
                OFFSET -7.75947 0.938293 5.60832
                CHANNELS 3 Zrotation Xrotation Yrotation
                JOINT rIndex2
                {
                  OFFSET -2.54057 -0.884171 1.56538
                  CHANNELS 3 Zrotation Xrotation Yrotation
                  End Site
                  {
                    OFFSET -1.62519 -0.234802 1.16502
                  }
                }
              }
              JOINT rMid1
              {
                OFFSET -8.24714 1.18213 3.41376
                CHANNELS 3 Zrotation Xrotation Yrotation
                JOINT rMid2
                {
                  OFFSET -3.10165 -0.590103 1.0647
                  CHANNELS 3 Zrotation Xrotation Yrotation
                  End Site
                  {
                    OFFSET -2.48547 -0.328903 0.83742
                  }
                }
              }
              JOINT rRing1
              {
                OFFSET -8.82822 0.546677 1.51678
                CHANNELS 3 Zrotation Xrotation Yrotation
                JOINT rRing2
                {
                  OFFSET -2.60934 -0.819778 -0.0198488
                  CHANNELS 3 Zrotation Xrotation Yrotation
                  End Site
                  {
                    OFFSET -2.33842 -0.294052 0.168128
                  }
                }
              }
              JOINT rPinky1
              {
                OFFSET -8.27202 -0.0477905 -0.4584
                CHANNELS 3 Zrotation Xrotation Yrotation
                JOINT rPinky2
                {
                  OFFSET -1.82734 -0.647385 -0.700984
                  CHANNELS 3 Zrotation Xrotation Yrotation
                  End Site
                  {
                    OFFSET -1.69225 -0.51767 -0.607171
                  }
                }
              }
            }
          }
        }
      }
      JOINT lCollar
      {
        OFFSET 2.68224 19.2634 -4.8768
        CHANNELS 3 Zrotation Xrotation Yrotation
        JOINT lShldr
        {
          OFFSET 8.77824 -1.95073 1.46304
          CHANNELS 3 Zrotation Xrotation Yrotation
          JOINT lForeArm
          {
            OFFSET 28.1742 -1.7115 0.48768
            CHANNELS 3 Zrotation Xrotation Yrotation
            JOINT lHand
            {
              OFFSET 22.5879 0.773209 7.07136
              CHANNELS 3 Zrotation Xrotation Yrotation
              JOINT lThumb1
              {
                OFFSET 1.2192 -0.487915 3.41376
                CHANNELS 3 Zrotation Xrotation Yrotation
                JOINT lThumb2
                {
                  OFFSET 3.37035 -0.52449 3.41376
                  CHANNELS 3 Zrotation Xrotation Yrotation
                  End Site
                  {
                    OFFSET 1.78271 -1.18214 1.43049
                  }
                }
              }
              JOINT lIndex1
              {
                OFFSET 7.75947 0.938293 5.60832
                CHANNELS 3 Zrotation Xrotation Yrotation
                JOINT lIndex2
                {
                  OFFSET 2.54057 -0.884171 1.56538
                  CHANNELS 3 Zrotation Xrotation Yrotation
                  End Site
                  {
                    OFFSET 1.62519 -0.234802 1.16502
                  }
                }
              }
              JOINT lMid1
              {
                OFFSET 8.24714 1.18213 3.41376
                CHANNELS 3 Zrotation Xrotation Yrotation
                JOINT lMid2
                {
                  OFFSET 3.10165 -0.590103 1.0647
                  CHANNELS 3 Zrotation Xrotation Yrotation
                  End Site
                  {
                    OFFSET 2.48547 -0.328903 0.83742
                  }
                }
              }
              JOINT lRing1
              {
                OFFSET 8.82822 0.546677 1.51678
                CHANNELS 3 Zrotation Xrotation Yrotation
                JOINT lRing2
                {
                  OFFSET 2.60934 -0.819778 -0.0198488
                  CHANNELS 3 Zrotation Xrotation Yrotation
                  End Site
                  {
                    OFFSET 2.33842 -0.294052 0.168128
                  }
                }
              }
              JOINT lPinky1
              {
                OFFSET 8.27202 -0.0477905 -0.4584
                CHANNELS 3 Zrotation Xrotation Yrotation
                JOINT lPinky2
                {
                  OFFSET 1.82734 -0.647385 -0.700984
                  CHANNELS 3 Zrotation Xrotation Yrotation
                  End Site
                  {
                    OFFSET 1.69225 -0.51767 -0.607171
                  }
                }
              }
            }
          }
        }
      }
    }
  }
  JOINT rButtock
  {
    OFFSET -8.77824 4.35084 1.2192
    CHANNELS 3 Zrotation Xrotation Yrotation
    JOINT rThigh
    {
      OFFSET 0 -1.70687 -2.19456
      CHANNELS 3 Zrotation Xrotation Yrotation
      JOINT rShin
      {
        OFFSET 0 -36.8199 0.73152
        CHANNELS 3 Zrotation Xrotation Yrotation
        JOINT rFoot
        {
          OFFSET 0.73152 -45.1104 -5.12064
          CHANNELS 3 Zrotation Xrotation Yrotation
          End Site
          {
            OFFSET -1.1221 -3.69964 12.103
          }
        }
      }
    }
  }
  JOINT lButtock
  {
    OFFSET 8.77824 4.35084 1.2192
    CHANNELS 3 Zrotation Xrotation Yrotation
    JOINT lThigh
    {
      OFFSET 0 -1.70687 -2.19456
      CHANNELS 3 Zrotation Xrotation Yrotation
      JOINT lShin
      {
        OFFSET 0 -36.8199 0.73152
        CHANNELS 3 Zrotation Xrotation Yrotation
        JOINT lFoot
        {
          OFFSET -0.73152 -45.1104 -5.12064
          CHANNELS 3 Zrotation Xrotation Yrotation
          End Site
          {
            OFFSET 1.1221 -3.69964 12.103
          }
        }
      }
    }
  }
}
MOTION
Frames:	6
Frame Time:	0.00833333
60.8208 80.2818 -59.5337 -1.6258 6.3351 6.6123 3.68159 6.24676 0.185664 -0.492176 -1.16541 0.124315 0.00727448 11.7816 -2.41966 0.622547 -10.8303 -4.60036 -0.0 0.0 0.0 -0.0 0.0 0.0 -2.36833e-14 -1.71583e-14 -4.94244e-15 80.3045 22.7468 -9.76042 -15.4746 -8.21036 28.5659 -0.0314268 5.05301 0.712021 2.65631e-10 -1.81184e-10 3.66094e-10 4.61055e-10 -3.13699e-10 6.31641e-10 2.65634e-10 -1.81182e-10 3.66078e-10 7.73091 5.47488 0.417314 2.65626e-10 -1.81179e-10 3.66087e-10 2.90554 0.965183 0.102902 2.65643e-10 -1.81178e-10 3.66087e-10 10.2786 0.731801 0.0259123 2.65631e-10 -1.81181e-10 3.6609e-10 2.22167 -0.733487 -0.20892 -2.36997e-14 -1.71564e-14 -5.25537e-15 -62.628 34.4015 -5.36402 19.7759 -12.7319 -38.1407 0.0836762 -8.22824 1.16449 2.17268e-10 2.68171e-10 8.29497e-11 3.74836e-10 4.63111e-10 1.45684e-10 2.17263e-10 2.68173e-10 8.29633e-11 -7.73091 5.47488 -0.417314 2.17271e-10 2.68173e-10 8.295e-11 -2.90554 0.965183 -0.102902 2.17265e-10 2.68171e-10 8.29527e-11 -10.2786 0.731801 -0.0259123 2.17275e-10 2.6817e-10 8.29434e-11 -2.22167 -0.733487 0.20892 -2.03217e-16 0.0 -3.88251e-19 -8.38941 -26.6672 -9.63429 -0.0698924 36.2313 1.59504 2.53834 -17.7587 -9.39199 2.03217e-16 0.0 3.88251e-19 13.2208 -20.8573 -10.612 0.0292276 15.0703 -0.680095 -3.43263 -1.30326 -1.55593
61.0614 80.1343 -59.0843 -1.3048 6.1778 6.7259 3.4392 6.45705 0.209008 -0.498048 -1.2347 0.126286 0.0384243 11.6347 -2.38959 0.338724 -10.8947 -4.57435 -0.0 0.0 0.0 -0.0 0.0 0.0 -9.17444e-15 -1.7344e-13 -2.99357e-14 79.9213 22.919 -9.14066 -15.2251 -7.99017 28.0456 -0.0325801 5.14172 0.724592 -1.16416e-10 -8.80966e-10 1.35512e-09 -1.92527e-10 -1.52708e-09 2.34469e-09 -1.16411e-10 -8.80966e-10 1.35511e-09 7.73091 5.47488 0.417314 -1.1642e-10 -8.80965e-10 1.35511e-09 2.90554 0.965183 0.102902 -1.16403e-10 -8.80963e-10 1.35511e-09 10.2786 0.731801 0.0259123 -1.16417e-10 -8.80964e-10 1.35512e-09 2.22167 -0.733487 -0.20892 -9.18891e-15 -1.73439e-13 -3.0265e-14 -62.8524 34.4027 -5.33537 19.7439 -12.6917 -38.066 0.0793441 -8.01643 1.1341 -3.37552e-10 -1.42192e-09 3.18652e-10 -5.90473e-10 -2.4678e-09 5.49819e-10 -3.37558e-10 -1.42192e-09 3.18662e-10 -7.73091 5.47488 -0.417314 -3.3755e-10 -1.42192e-09 3.18654e-10 -2.90554 0.965183 -0.102902 -3.37554e-10 -1.42192e-09 3.18656e-10 -10.2786 0.731801 -0.0259123 -3.37547e-10 -1.42192e-09 3.18646e-10 -2.22167 -0.733487 0.20892 -2.03217e-16 0.0 -3.88251e-19 -8.7525 -27.0121 -9.84448 -0.076014 36.9918 1.66277 2.51837 -17.7134 -9.47272 2.03217e-16 0.0 3.88251e-19 12.857 -21.2883 -9.86538 0.0342023 15.5631 -0.67085 -3.42219 -1.65648 -2.21363
61.2563 80.0492 -58.6511 -0.943 6.0425 6.8121 3.14387 6.71055 0.203561 -0.480065 -1.30271 0.120348 0.0748268 11.5136 -2.35983 0.0806975 -11.0038 -4.54659 -0.0 0.0 0.0 -0.0 0.0 0.0 3.86401e-15 -3.17745e-13 -4.70304e-14 79.5242 23.0544 -8.48754 -14.9689 -7.76575 27.5198 -0.0341606 5.26376 0.741888 -4.88776e-10 -1.4991e-09 2.26944e-09 -8.29925e-10 -2.599e-09 3.92843e-09 -4.88769e-10 -1.4991e-09 2.26943e-09 7.73091 5.47488 0.417314 -4.88779e-10 -1.4991e-09 2.26943e-09 2.90554 0.965183 0.102902 -4.88763e-10 -1.4991e-09 2.26943e-09 10.2786 0.731801 0.0259123 -4.88778e-10 -1.4991e-09 2.26944e-09 2.22167 -0.733487 -0.20892 3.84768e-15 -3.17744e-13 -4.73729e-14 -63.0213 34.4588 -5.3927 19.6798 -12.613 -37.9123 0.0751293 -7.80038 1.10315 -8.7144e-10 -2.99892e-09 5.37046e-10 -1.51906e-09 -5.20248e-09 9.2413e-10 -8.71448e-10 -2.99892e-09 5.37053e-10 -7.73091 5.47488 -0.417314 -8.71438e-10 -2.99892e-09 5.37049e-10 -2.90554 0.965183 -0.102902 -8.71441e-10 -2.99892e-09 5.37051e-10 -10.2786 0.731801 -0.0259123 -8.71438e-10 -2.99892e-09 5.3704e-10 -2.22167 -0.733487 0.20892 -2.03217e-16 0.0 -3.88251e-19 -9.13097 -27.2453 -10.0331 -0.0839311 37.7128 1.73096 2.48801 -17.5918 -9.59751 2.03217e-16 0.0 3.88251e-19 12.4635 -21.6215 -8.94673 0.0382633 16.3017 -0.672744 -3.40409 -2.05081 -3.0419
61.4045 80.0309 -58.2377 -0.5859 5.9631 6.8554 2.91121 6.97709 0.156096 -0.447551 -1.36381 0.104901 0.106939 11.4429 -2.3433 -0.122962 -11.1423 -4.53867 -0.0 0.0 0.0 -0.0 0.0 0.0 8.52621e-15 -3.84848e-13 -5.22804e-14 79.1916 23.1247 -7.93108 -14.7543 -7.57947 27.0845 -0.036129 5.4173 0.763651 -6.50764e-10 -1.76648e-09 2.67833e-09 -1.10716e-09 -3.06263e-09 4.63661e-09 -6.50756e-10 -1.76648e-09 2.67832e-09 7.73091 5.47488 0.417314 -6.50766e-10 -1.76648e-09 2.67832e-09 2.90554 0.965183 0.102902 -6.50752e-10 -1.76648e-09 2.67833e-09 10.2786 0.731801 0.0259123 -6.50767e-10 -1.76648e-09 2.67833e-09 2.22167 -0.733487 -0.20892 8.52012e-15 -3.84846e-13 -5.26282e-14 -63.0788 34.6371 -5.56787 19.5827 -12.4959 -37.6763 0.0717717 -7.62125 1.07752 -1.12186e-09 -3.70167e-09 6.36012e-10 -1.95442e-09 -6.42102e-09 1.09361e-09 -1.12187e-09 -3.70167e-09 6.36019e-10 -7.73091 5.47488 -0.417314 -1.12185e-09 -3.70167e-09 6.36016e-10 -2.90554 0.965183 -0.102902 -1.12186e-09 -3.70167e-09 6.36018e-10 -10.2786 0.731801 -0.0259123 -1.12186e-09 -3.70167e-09 6.36006e-10 -2.22167 -0.733487 0.20892 -2.03217e-16 0.0 -3.88251e-19 -9.41742 -27.3734 -10.1614 -0.0902678 38.186 1.77877 2.43615 -17.3836 -9.79019 2.03217e-16 0.0 3.88251e-19 12.1254 -21.7717 -7.99835 0.0407535 17.2797 -0.688743 -3.3656 -2.45333 -4.01679
61.4974 80.0746 -57.8497 -0.269 5.9699 6.8506 2.7331 7.27847 0.0554012 -0.383427 -1.41294 0.0769573 0.132152 11.4332 -2.34786 -0.263036 -11.3239 -4.56505 -0.0 0.0 0.0 -0.0 0.0 0.0 -1.33252e-15 -3.36296e-13 -3.77248e-14 78.9286 23.0855 -7.48113 -14.5841 -7.43459 26.739 -0.0393242 5.66176 0.798319 -4.74626e-10 -1.49721e-09 2.32104e-09 -8.05232e-10 -2.59555e-09 4.01731e-09 -4.74618e-10 -1.49722e-09 2.32103e-09 7.73091 5.47488 0.417314 -4.74628e-10 -1.49722e-09 2.32104e-09 2.90554 0.965183 0.102902 -4.74616e-10 -1.49722e-09 2.32104e-09 10.2786 0.731801 0.0259123 -4.74628e-10 -1.49721e-09 2.32105e-09 2.22167 -0.733487 -0.20892 -1.30149e-15 -3.36292e-13 -3.80684e-14 -62.9929 34.9903 -5.89503 19.4397 -12.3245 -37.3317 0.0700885 -7.52437 1.06368 -9.27354e-10 -3.03884e-09 5.56471e-10 -1.61574e-09 -5.27136e-09 9.57082e-10 -9.27364e-10 -3.03883e-09 5.56481e-10 -7.73091 5.47488 -0.417314 -9.27353e-10 -3.03883e-09 5.56475e-10 -2.90554 0.965183 -0.102902 -9.27356e-10 -3.03883e-09 5.56476e-10 -10.2786 0.731801 -0.0259123 -9.27354e-10 -3.03883e-09 5.56464e-10 -2.22167 -0.733487 0.20892 -2.03217e-16 0.0 -3.88251e-19 -9.62063 -27.3493 -10.2054 -0.0920702 38.3375 1.80161 2.36451 -17.0887 -10.0779 2.03217e-16 0.0 3.88251e-19 11.8339 -21.7072 -6.98534 0.04375 18.4958 -0.722897 -3.32243 -2.8229 -5.20148
61.5282 80.1694 -57.493 -0.009 6.0868 6.81 2.56224 7.62081 -0.0890829 -0.28928 -1.45428 0.0382239 0.155516 11.47 -2.36512 -0.355619 -11.5509 -4.61144 -0.0 0.0 0.0 -0.0 0.0 0.0 -2.05947e-14 -2.13896e-13 -7.77124e-15 78.7022 22.9646 -7.07809 -14.4376 -7.31241 26.4406 -0.0438345 5.97814 0.843244 -9.21393e-11 -8.72871e-10 1.47592e-09 -1.50023e-10 -1.51271e-09 2.55286e-09 -9.21336e-11 -8.72872e-10 1.47592e-09 7.73091 5.47488 0.417314 -9.21427e-11 -8.72871e-10 1.47592e-09 2.90554 0.965183 0.102902 -9.21321e-11 -8.72873e-10 1.47592e-09 10.2786 0.731801 0.0259123 -9.21419e-11 -8.72872e-10 1.47593e-09 2.22167 -0.733487 -0.20892 -2.05117e-14 -2.13888e-13 -8.10358e-15 -62.7918 35.4693 -6.35306 19.2525 -12.1013 -36.8895 0.0693411 -7.47633 1.05683 -4.58433e-10 -1.51248e-09 3.63501e-10 -7.99523e-10 -2.62416e-09 6.26054e-10 -4.58444e-10 -1.51248e-09 3.63519e-10 -7.73091 5.47488 -0.417314 -4.58432e-10 -1.51248e-09 3.63506e-10 -2.90554 0.965183 -0.102902 -4.58437e-10 -1.51247e-09 3.63506e-10 -10.2786 0.731801 -0.0259123 -4.58433e-10 -1.51248e-09 3.63493e-10 -2.22167 -0.733487 0.20892 -2.03217e-16 0.0 -3.88251e-19 -9.78393 -27.186 -10.1894 -0.090544 38.2845 1.80933 2.28093 -16.7119 -10.4403 2.03217e-16 0.0 3.88251e-19 11.5386 -21.4715 -5.86149 0.0489848 19.9531 -0.773527 -3.28164 -3.18589 -6.58607
